<svg width="35" height="36" viewBox="0 0 35 36" fill="none" xmlns="http://www.w3.org/2000/svg">
<path opacity="0.5" d="M17.4998 15.313L8.74927 19.6882V30.6262L17.4998 35.0014L26.2498 30.6262V19.6878L17.4998 15.313Z" fill="white"/>
<path opacity="0.7" d="M17.4998 24.063L8.74927 19.6878L17.4998 15.3125L26.2498 19.6878L17.4998 24.063Z" fill="#CCCCCC"/>
<path d="M26.2503 19.6885L17.5003 24.0637V35.0017L26.2503 30.6264V19.6885Z" fill="#6E6DF2"/>
<path opacity="0.5" d="M8.75015 0.000488281L0 4.37576V15.3137L8.75015 19.6889L17.5002 15.3137V4.37531L8.75015 0.000488281Z" fill="white"/>
<path opacity="0.9" d="M17.4998 4.375L8.74927 8.75024V19.6877L17.4998 15.3124V4.375Z" fill="#E6E6E6"/>
<path opacity="0.5" d="M17.4998 4.375L8.74927 8.75024V19.6877L17.4998 24.0629L26.2498 19.6877V8.75024L17.4998 4.375Z" fill="white"/>
<path opacity="0.9" d="M26.2503 8.74854L17.5003 13.1238V24.0617L26.2503 19.6864V8.74854Z" fill="#E6E6E6"/>
<path opacity="0.75" d="M26.2503 8.74854L17.5003 13.1238V24.0617L26.2503 28.437L35.0004 24.0617V13.1256L26.2503 8.74854Z" fill="#7F7EFF"/>
<path d="M26.2502 8.75051L17.5002 4.37527L8.75015 0L0 4.37527L8.75015 8.75051L17.5002 13.1258L26.2502 17.501L35.0002 13.1258L26.2502 8.75051Z" fill="#6E6DF2"/>
<path d="M17.5002 13.1255L8.75015 8.75027L0 4.375V15.3129L8.75015 19.6882V30.6261L17.5002 35.0013V24.0634L26.2502 28.4387V17.4999L17.5002 13.1255Z" fill="#7F7EFF"/>
</svg>
